# xmcd
#
# Track frame offsets:
#	150
#	12965
#	27267
#	38647
#	51352
#	66547
#	83307
#	96282
#	109595
#	130870
#	147792
#	169680
#
# Disc length: 2485 seconds
#
# Revision: 0
# Processed by: cddbd v1.4PL0 Copyright (c) Steve Scherf et al.
# Submitted via: dBpowerAMP V4.0
#
DISCID=9609b30c
DTITLE=Conway Twitty - The Best Of - Millennium Collection
DYEAR=1900
DGENRE=Country
TTITLE0=Next In Line
TTITLE1=Fifteen Years Ago
TTITLE2=Louisiana Woman, Mississippi Man
TTITLE3=I See The Want To In Your Eyes
TTITLE4=Play, Guitar, Play
TTITLE5=Don't Take It Away
TTITLE6=Happy Birthday, Darlin'
TTITLE7=A Bridge That Just Won't Burn
TTITLE8=Red Neckin' Love Makin' Night
TTITLE9=Julia
TTITLE10=That's My Job
TTITLE11=She's Got A Single Thing On Her Mind
EXTD=
EXTT0=
EXTT1=
EXTT2=
EXTT3=
EXTT4=
EXTT5=
EXTT6=
EXTT7=
EXTT8=
EXTT9=
EXTT10=
EXTT11=
PLAYORDER=
